<?xml version="1.0" encoding="UTF-8"?>
<svg id="Layer_1" data-name="Layer 1" xmlns="http://www.w3.org/2000/svg" viewBox="0 0 576 576">
  <defs>
    <style>
      .cls-1 {
        fill: none;
        stroke-linecap: round;
        stroke-linejoin: round;
        stroke-width: 2px;
      }

      .cls-1, .cls-2 {
        stroke: #fff;
      }

      .cls-2 {
        fill: #fff;
        stroke-miterlimit: 10;
      }
    </style>
  </defs>
  <path class="cls-1" d="M353.88,470.04c-6.63,5.56-12.63,13.56-21.63,13.56-3-1-8-2-8-7-21,0-242.42.39-263.72.14"/>
  <path class="cls-1" d="M368.85,275.81c-2.59.57-4.54-1-6.64-2.01-3.05-1.46-2.83-1.41-4.37,1.66-3.42,6.83-3.92,14.32-5.35,21.62-2.92,14.9-1.62,29.93-1.92,44.91-.23,11.48-2.16,22.51-7.27,32.96-3.8,7.78-6.79,15.97-7.96,24.59-.93,6.84-.42,13.71.42,20.63.86,7.09.63,14.38-3.35,20.71,3.51,4.14,3.42,4.43.57,8.9-1,1.56-3.19,3.16-1.94,5.22.99,1.65,3.23.68,4.88.69,4.98.03,9.93-.06,14.64,2.02,3.49,1.54,4.9,3.67,4.15,6.67"/>
  <path class="cls-1" d="M429.05,285.62c-3.08,6.83-4.4,14.08-5.34,21.45-1.11,8.74-3.21,17.27-6.02,25.59-1.66,4.9-3,9.82-2.55,14.98.35,3.91,1.17,7.78,1.95,11.64,1.63,8.07,1.55,16.11.75,24.29-.75,7.7-3.35,14.67-7.54,20.86-4.31,6.36-4.52,12.68-1.83,19.35,2.53,6.29,2.1,12.3-.7,18.32-1.24,2.66-4.13,3.97-5.33,6.65"/>
  <path class="cls-1" d="M357.87,454.74c3.49-2.27,3.76-6.3,4.89-9.68,2.62-7.83,3.64-16.02,4.47-24.24,1.02-10.07,1.61-20.15,2.02-30.27.27-6.78.64-13.67,2.1-20.25,1.36-6.09-.33-12.51,2.48-18.33-.5-13.47,5.25-25.15,10.66-36.91.97-2.11,1.9-4.34,4.18-5.43,3.83,2.65,2.84,6.89,3.74,10.42,1,3.94.74,7.9.18,11.98-.58,4.24-.21,8.63-.12,12.95.43,20.63-3.01,40.57-10.3,59.87-2.89,7.65-4.99,15.58-6.2,23.63-.73,4.89-.48,10.02.85,14.95,1.02,3.76,1.98,7.54,3,11.3,1.04,3.8,3.63,4.8,6.96,2.64.98-.63,1.78-1.54,2.66-2.33-1.02-2.26-2.4-4.33-3.96-6.3-1.95-2.45-3.35-5.18-4.04-8.3-.78-3.53.23-5.84,3.7-6.95,2.87-.91,5.72-1.83,8.29-3.39,3.2-1.94,3.3-3.31.33-5.61-3.75-2.9-6.4-6.36-5.91-11.33.25-2.58,1.04-5.11,1.61-7.65,2.32-10.2,4.98-20.34,6.89-30.62,1.79-9.63,1.6-19.46,1.43-29.25-.11-6.09,1.52-11.77,3.95-17.31,2.89-6.59,6.22-13,7.44-20.26.45-2.66,1.22-5.26,1.25-8,.04-3.66.21-7.32.32-10.98"/>
  <path class="cls-1" d="M408.76,197.32c-7.99,2.55-15.94,1.84-23.58-1.09-5.76-2.21-11.5-3.55-17.66-3.29-1.76.07-3.56-.54-5.29-.83-1.03-4.41-3.96-6.27-9.67-5.71-3.16.31-6.26,1.25-8.65,3.61-3.37,3.33-2.01,7.12-.61,10.61,2.37,5.87,6.28,10.7,11.24,14.67,3.81,3.05,8.2,4.27,12.98,4.31,4.04.03,8.05.13,12.01-1.22,1.34-.46,3.2-.59,4.62.56"/>
  <path class="cls-1" d="M417.07,144.11c4.48,2.38,9.36,3.38,14.29,4.37,7.69,1.53,11.88,6.85,14.32,13.92,2.06,5.97,3.04,12.21,4.66,18.29.95,3.56,1.92,7.12,3.04,10.63.19.59.22,1.12.26,1.68.42,5-.89,5.34-4.98,5.3-2.88-.03-5.78.35-8.65-.31-4.79-1.1-6.87-6.74-6.01-10.32.87-3.64,1.68-7.29,2.31-10.98.31-1.82.19-3.73-2.2-4.71-2.8,2.41-3.58,5.97-4.35,9.39-1.31,5.84-1.18,11.68,1.32,17.26.27.61.17,1.13.29,1.68"/>
  <path class="cls-1" d="M418.74,476.69c2.07-.76,4.21-.32,6.32-.32,30.82-.01,61.64,0,92.46,0"/>
  <path class="cls-1" d="M371.51,359.62c-.78.33-1.41.76-1.67,1.66-1.25,4.31-4.2,7.41-7.67,9.94-4.47,3.26-6.36,5.61-2.54,12.29,4.53,7.94,4.89,16.44,4.09,24.98-.72,7.78-.87,15.67-3.09,23.32-1.06,3.67-3.28,6.41-5.46,9.25-1.32,1.72-2.8,3.3-3.57,5.23,1.85,3.61,5.93,5.84,5.94,10.43"/>
  <path class="cls-1" d="M399.45,223.6c-2.97,5.21-1.39,10.57-.7,15.97,1.15,9.01,2.32,18.02-.9,26.95-1.65,4.57-4.84,6.61-9.37,6.94-4.49.32-8.93-.16-13.31-1.28-4.15-1.07-7.98-2.78-11.65-4.98-4.21-2.53-6.17-6.39-6.24-11-.11-7.49,2.09-15.08,3.13-22.3.36-2.46,1.15-6.59,1.62-9.08"/>
  <path class="cls-1" d="M416.41,208.3c1.5-5.13-2.64-7.68-5.5-10.1-1.91-1.62-2.54-3.42-3.04-5.23-1.54-5.51-1.99-11.19-2.16-16.93-.19-6.66-.17-13.44-1.51-19.91-.85-4.09-.55-7.86.04-11.67.32-2.06-1.32-3.16-1.21-5.01.18-3.11.24-6.21.71-9.31.62-4.07-.5-7.77,1.8-11.33,3.27-5.08,2.24-14.26,2.65-21.05.38-6.2-.51-13.04-3.88-18.41-5.02-7.99-12.79-9.39-22.12-5.67-7.27,2.9-11.05,10.44-10.02,18.56.31,2.43-.43,4.96.68,7.31"/>
  <path class="cls-1" d="M377.68,142.75l2.34-12.02c-1.87,1.43-6.75,2.28-7.6,4.37-.77,1.88.03-.56-1.35,4.95.87-3.47-6.15,1.69-9.23,2.67-9.65,3.06-16.61,8.45-18.66,19.02-1.22,6.3-3.33,12.44-3.27,18.97.01,1.21-.2,2.48,1.14,3.42,3.9-2.74,8.46-3.72,13.16-3.67,2.78.03,5.59.63,8.3,1.3,2.95.73,3.75.39,3.27-2.7-.62-4.03-1.35-8.12-2.71-11.94-1.06-2.98-1.79-5.96-2.17-9.03-.62-4.94,3.63-11.09,8.19-13.4"/>
  <path class="cls-1" d="M361.86,224.6c.01,1.01-.09,1.98.99,2.68,3.94,2.57,5.02,6.86,5.55,10.97.94,7.29.55,14.64-.51,21.94-.41,2.84.29,5.78-.38,8.64"/>
  <path class="cls-1" d="M392.13,314.39c4.76-3.79,7.77-8.95,10.99-13.96,2.45-3.8,3.32-8.22,4.81-12.38.49-1.38,0-3.5-.26-5.25-.06-.4-.45-1.26-1.55-1.46-1.45-.25-2.86-.56-4.34-.56-9.07.04-18.08-.51-26.95-2.62-.71-.17-1.54.18-2.32.3"/>
  <path class="cls-1" d="M368.85,270.82c-.14,2.63-.28,5.49,2.38,6.88,1.58.83.58,2.19,1.54,3.16,4.49,4.54,9.82,7.21,16.02,8.65,6.06,1.41,11.99-.28,17.98-.07"/>
  <path class="cls-1" d="M391.13,317.72c-4,4.34-6.24,9.71-8.63,14.97-2.27,4.99-4.27,10.09-6.04,15.28-.4,1.18-.81,2.56-2.29,3.01"/>
  <path class="cls-1" d="M354.88,470.04c-2.89-4.22-6.92-6.23-11.95-7.12-2.88-.51-5.54-2.3-8.67-1.85-.67.1-1.29-.09-2.02.27-2.12,1.06-4.55,4.3-3.58,5.32,1.72,1.81,3.86,1.4,5.93.39,2.54-1.24,5.33-1.96,7.65-3.66"/>
  <path class="cls-1" d="M412.08,198.32c5.22-1.44,10.37-.92,15.28,1.05,6.56,2.63,13.05,5.2,20.31,4.99,2.12-.06,4.2.86,5.95,2,2.38,1.55,2.76,4.91,1.02,7.25-1.59,2.12-2.09,4.24-1.76,7.01.62,5.21-4.31,10.08-9.86,10.28-2.81.1-5.65.25-8.31-.98"/>
  <path class="cls-1" d="M410.42,210.3c-4.82-.53-9.12,1.72-13.61,2.78-3.58.84-9.65,3.76-13.06,5.26"/>
  <path class="cls-1" d="M413.41,464.89c-2.54-3.8-6.84-4.33-10.67-5-3.88-.68-7.92-1.31-11.94-.8-.79.1-1.55.43-2.33.65"/>
  <path class="cls-1" d="M377.77,142.06c5.88,6.54,11.41,11.87,17.38,18.33,4,4.33,4.36,9.57,4.3,14.99"/>
  <path class="cls-1" d="M386.81,457.74c.33.55.98,1.13.95,1.66-.34,6.17,4.19,7.9,8.7,9.63,1.96.75,3.96,1.42,5.99,1.97.83.22,2.08.41,2.6-.03,2.83-2.37,6.93-2.88,8.98-6.58,4.18,2.84,5.81,6.94,7.04,11.3"/>
  <path class="cls-1" d="M400.11,222.93c.65-3.54,3.61-5.22,6.01-7.29,1.75-1.51,4.01-2.02,4.87-4.95.63-2.13,4.11-2,6.42-2.35,5.52-.84,11.14-1.69,16.63-1.81,7.17-.15,14.74.53,19.28,7.74"/>
  <path class="cls-1" d="M390.8,450.75c1.88-.33,3.85-.43,5.64-1.05,3.84-1.32,7.29-.34,10.65,1.39,3.79,1.95,6.43,5.18,8.53,8.71.72,1.21.45,3.35-.54,4.91"/>
  <path class="cls-1" d="M408.77,111.03c2.75-.99,4.75-3.72,5.25-7.16.84-5.77,1.07-8.71-4.42-7.4"/>
  <path class="cls-1" d="M451.99,218.94c-4.88,2.99-9.75,6-14.64,8.97-.79.48-1.55.9-1.32,2.01"/>
  <path class="cls-1" d="M428.38,285.96c-2.87-1.42-5.53.53-8.31.53-2.33,0-4.56,1.37-6.98.63"/>
  <path class="cls-1" d="M384.07,218.92c2.19,2.54,6.78,1.56,9.45,2.51,1.98.71,4.1,1.48,6.26,1.84"/>
  <path class="cls-1" d="M404.75,120.55c.09,2.13-5.73,9.05-8.96,10.27-3.79,1.44-7.27,1.57-11.02-.6-6.04-3.5-6.55-10.17-9.6-15.37,1.62-2.73.82-5.75,1-8.65"/>
  <path class="cls-1" d="M371.84,98.22c-3.1.75-4.3,2.22-4.32,5.32-.04,5.95,2.95,10.44,7.32,10.98"/>
  <path class="cls-1" d="M377.61,142.52c-1.42,4.26-3.61,8.09-6.32,11.64"/>
  <path class="cls-1" d="M397.93,164.15c.48-1.09,1.27-1.9,1.46-3.31.36-2.71,4.36-9.76,6.52-12.21l2.67-10.76c2.45,1.4,1.01,4.04,1.87,6.04,1.41,3.26,1.94,4.03,5.73,6.35,1.95,1.19,3.49,3.15,4.98,4.95.59.71,1.11.53,1.72.62,0,0-.86-4.76-2.23-5.69s-4.03-3.95-4.1-5.54c-.07-1.58-11.37-9.21-12.58-10.14"/>
  <path class="cls-1" d="M382.68,128.89c-.36.74-.55,1.45-.68,2.33-.55,3.7-.75,5.3-2.3,6.66"/>
  <path class="cls-1" d="M371.02,140.09c-2.03,3.51-2.53,8.56-.63,12.07.4.73,1.01,2.09.45,3.26"/>
  <path class="cls-1" d="M408.43,288.45c2.3.16,4.33.38,4.81-2.97.22-1.56,2.34-2.29,4.16-2.73,3.99-.95,7.98-1.83,11.69-3.87,4.53-2.48,6.61-6.11,6.59-11.06-.04-9.9-1-19.75-2-29.6-.11-1.12-.64-2.13-.71-3.32-.17-2.83-2.63-2.69-4.59-2.98-9.66-1.43-18.56-5.26-27.61-8.65-.29-.11-.66-.01-.99-.01"/>
  <path class="cls-2" d="M122.74,183.84h-5.48l-9.42-19.16h-27.49l-9.42,19.16h-5.48l26.26-53.72h4.99l26.05,53.72ZM105.62,159.79l-11.39-23.48-11.46,23.48h22.85Z"/>
  <path class="cls-2" d="M171.19,165.56c0,2.74-.42,5.23-1.27,7.45-.84,2.23-2.06,4.15-3.66,5.77-1.59,1.62-3.53,2.87-5.8,3.74-2.27.88-4.77,1.32-7.49,1.32h-20.88v-37.16h20.88c2.62,0,4.79.25,6.49.74,1.7.49,3.43,1.5,5.19,3.02,2.11,1.85,3.73,4.11,4.85,6.77,1.12,2.66,1.69,5.44,1.69,8.35ZM166.37,165.49c0-4.24-1.42-7.82-4.25-10.72-1.24-1.29-2.53-2.14-3.87-2.57s-3.05-.63-5.13-.63h-16.17v27.39h16.03c2.79,0,5.19-.55,7.19-1.65,2-1.1,3.54-2.67,4.61-4.69,1.07-2.03,1.6-4.4,1.6-7.12Z"/>
  <path class="cls-2" d="M226.56,183.84h-5.1l-5.2-9.28h-25.7l-5.27,9.28h-5.1l21.16-37.16h4.39l20.81,37.16ZM213.52,169.67l-9.98-17.86-10.16,17.86h20.14Z"/>
  <path class="cls-2" d="M279.93,183.84h-4.85v-28.44l-15.68,23.55-15.61-23.55v28.44h-4.85v-37.16h4.99l15.47,23.55,15.68-23.55h4.85v37.16Z"/>
  <path class="cls-2" d="M123.24,255.75c0,3.7-1.51,6.82-4.52,9.35-3.01,2.53-6.57,4.31-10.67,5.34-2.91.73-5.93,1.09-9.07,1.09-4.08,0-7.91-.67-11.48-2-3.57-1.34-6.73-3.26-9.47-5.77-2.74-2.51-4.88-5.51-6.4-9-1.52-3.49-2.29-7.27-2.29-11.32,0-5.32,1.35-10.11,4.04-14.38,2.69-4.27,6.36-7.61,11-10.02,4.64-2.41,9.73-3.62,15.26-3.62,9.21,0,16.65,3.25,22.32,9.74l-3.2,3.52c-2.48-2.67-5.26-4.73-8.33-6.17-3.07-1.44-6.67-2.16-10.79-2.16-4.76,0-9.07,1.04-12.94,3.13-3.87,2.09-6.9,4.92-9.11,8.51-2.2,3.59-3.3,7.43-3.3,11.53,0,4.66,1.12,8.75,3.36,12.25,2.24,3.5,5.27,6.18,9.09,8.03,3.82,1.85,8.03,2.78,12.62,2.78,2.39,0,4.78-.29,7.17-.88,2.93-.75,5.63-1.98,8.1-3.69,2.47-1.71,3.71-3.77,3.71-6.19v-9.35h-19.37v-4.89h24.26v14.17Z"/>
  <path class="cls-2" d="M176.85,270.24h-6.12l-10.62-15.05h-16.56v15.05h-4.82v-37.16h23.13c2.51,0,4.83.36,6.98,1.09,2.14.73,3.88,1.92,5.2,3.59,1.32,1.66,1.99,3.79,1.99,6.36,0,2.91-.93,5.28-2.79,7.12-1.86,1.84-4.29,3.04-7.29,3.6l10.9,15.4ZM171.15,244.12c0-4.1-3.09-6.15-9.28-6.15h-18.32v12.41h18.32c6.19,0,9.28-2.09,9.28-6.26Z"/>
  <path class="cls-2" d="M198.75,270.24h-4.92v-37.16h4.92v37.16Z"/>
  <path class="cls-2" d="M261.33,270.24h-4.85v-28.44l-15.68,23.55-15.61-23.55v28.44h-4.85v-37.16h4.99l15.47,23.55,15.68-23.55h4.85v37.16Z"/>
  <path class="cls-2" d="M323.98,270.24h-4.85v-28.44l-15.68,23.55-15.61-23.55v28.44h-4.85v-37.16h4.99l15.47,23.55,15.68-23.55h4.85v37.16Z"/>
</svg>