<?xml version="1.0" encoding="UTF-8"?>
<svg id="layers" xmlns="http://www.w3.org/2000/svg" viewBox="0 0 2500 2500">
  <defs>
    <style>
      .cls-1 {
        font-family: AvianoRoyale-Reg, 'Aviano Royale';
        font-size: 144.61px;
      }

      .cls-1, .cls-2, .cls-3 {
        fill: #fff;
      }

      .cls-4 {
        letter-spacing: .8em;
      }

      .cls-5 {
        letter-spacing: 0em;
      }

      .cls-3 {
        font-family: BlairMdITCTTMedium, 'BlairMdITC TT';
        font-size: 147.33px;
      }
    </style>
  </defs>
  <g>
    <path class="cls-2" d="M880.97,1443.58c89.13,70.99,110.23,77.33,542.66,1.18l-542.66-1.18Z"/>
    <path class="cls-2" d="M461.88,962.58c120.96,145.3,139.83,220.63,874.8,318.29l-874.8-318.29Z"/>
    <path class="cls-2" d="M1376.12,1379.95l-693.99-155.66c103.71,103.87,112.06,139.46,693.99,155.66Z"/>
    <path class="cls-2" d="M291.43,567.54c78.56,256.07,107.51,294.07,983.66,563.6L291.43,567.54Z"/>
    <path class="cls-2" d="M1588.09,918.79c356.1-32.69,489.83,359.39,495.74,549.87,37.26-232.85-111.63-591.76-462.99-591.77l-32.75,41.9Z"/>
    <path class="cls-2" d="M1738.59,1127.39s126.07,261.74-247.26,363.42c-166.58,45.48-290.57,80.36-290.57,80.36,41.47,22.48,108.65,38.07,160.08,23.75,656.11-182.73,371.27-551.82,349.18-560.94l28.57,93.41Z"/>
  </g>
  <path class="cls-2" d="M977.17,1494.73c79.02,60.05,96.88,64.18,446.46-49.97l-446.46,49.97Z"/>
  <path class="cls-2" d="M524.41,1036.85c92.59,162.9,120.46,183.26,812.26,244.02l-812.26-244.02Z"/>
  <path class="cls-2" d="M1375.38,1380.18l-629.31-94.92c86.17,111.08,108.95,123.15,629.31,94.92Z"/>
  <path class="cls-2" d="M332.01,682.65c81.93,215.71,112.08,245.56,943.08,448.49l-943.08-448.49Z"/>
  <path class="cls-2" d="M1481.52,1367.55c-134.58-60.85,16.79-313.08,38.47-384.38-121.62,166.52-202.56,375.36-38.47,384.38Z"/>
  <path class="cls-2" d="M1602.06,1065.08c11.33,1.88,20.76-5.39,27.4-29.65.87-3.18-1.34-6.42-4.62-6.67-22.73-1.68-41.91,14.37-52.52,25.75-3.25,3.49-.57,9.14,4.2,8.86,8.73-.52,17.45.37,25.54,1.71Z"/>
  <path class="cls-2" d="M1521.21,957.05c79.91-75.93-31.33-100.32-31.33-100.32,0,0,39.79,51.63,31.33,100.32Z"/>
  <path class="cls-2" d="M1620.54,888.57c7.22-34.91-45.19-62.52-45.19-62.52,0,0,24.72,60.28,3.64,105.14,362.21-33.25,498.23,365.55,504.24,559.3,37.9-236.84-105.29-601.9-462.68-601.91Z"/>
  <path class="cls-2" d="M1715.9,1053.14c-1.49,183.09-123.17,122.22-147.05,232.99,32.96-71.96,165.64-20.76,162.86-143.09,0,0,119.71,248.96-260.02,352.38-169.44,46.26-271.28,75.43-271.28,75.43,42.18,22.87,68.49,34.93,121.36,22.53,671.95-172.61,415.46-521.36,394.13-540.24Z"/>
  <text class="cls-3" transform="translate(413.55 1719.73)"><tspan class="cls-4" x="0" y="0">PEGASU</tspan><tspan x="1579.62" y="0">S</tspan></text>
  <text class="cls-1" transform="translate(1731.95 1599.76)"><tspan x="0" y="0">real</tspan><tspan class="cls-5" x="345.46" y="0">m</tspan></text>
</svg>